<mxfile host="Electron" modified="2025-05-29T11:42:43.209Z" agent="Mozilla/5.0 (Windows NT 10.0; Win64; x64) AppleWebKit/537.36 (KHTML, like Gecko) draw.io/24.2.5 Chrome/120.0.6099.109 Electron/28.1.0 Safari/537.36" etag="mp7-ppJSZ0EPHnpPFkXk" version="24.2.5" type="device" pages="5">
  <diagram name="Main Use Case" id="FhImg-Ycd4bwdu1M-2TJ">
    <mxGraphModel dx="1597" dy="2040" grid="1" gridSize="10" guides="1" tooltips="1" connect="1" arrows="1" fold="1" page="1" pageScale="1" pageWidth="850" pageHeight="1100" math="0" shadow="0">
      <root>
        <mxCell id="0" />
        <mxCell id="1" parent="0" />
        <mxCell id="aKd_vlyp3bP-aZN8-c7Y-18" value="" style="rounded=0;whiteSpace=wrap;html=1;fillColor=none;" parent="1" vertex="1">
          <mxGeometry x="240" y="-130" width="970" height="750" as="geometry" />
        </mxCell>
        <mxCell id="aKd_vlyp3bP-aZN8-c7Y-22" style="rounded=0;orthogonalLoop=1;jettySize=auto;html=1;entryX=1;entryY=0;entryDx=0;entryDy=0;endArrow=none;endFill=0;exitX=0;exitY=0.3333333333333333;exitDx=0;exitDy=0;exitPerimeter=0;" parent="1" source="aKd_vlyp3bP-aZN8-c7Y-2" target="aKd_vlyp3bP-aZN8-c7Y-5" edge="1">
          <mxGeometry relative="1" as="geometry">
            <mxPoint x="1480" y="200" as="sourcePoint" />
          </mxGeometry>
        </mxCell>
        <mxCell id="aKd_vlyp3bP-aZN8-c7Y-23" style="rounded=0;orthogonalLoop=1;jettySize=auto;html=1;exitX=0;exitY=0.3333333333333333;exitDx=0;exitDy=0;exitPerimeter=0;entryX=1;entryY=0.5;entryDx=0;entryDy=0;endArrow=none;endFill=0;" parent="1" source="aKd_vlyp3bP-aZN8-c7Y-2" target="aKd_vlyp3bP-aZN8-c7Y-11" edge="1">
          <mxGeometry relative="1" as="geometry" />
        </mxCell>
        <mxCell id="aKd_vlyp3bP-aZN8-c7Y-24" style="rounded=0;orthogonalLoop=1;jettySize=auto;html=1;exitX=0;exitY=0.3333333333333333;exitDx=0;exitDy=0;exitPerimeter=0;entryX=1;entryY=0.5;entryDx=0;entryDy=0;endArrow=none;endFill=0;" parent="1" source="aKd_vlyp3bP-aZN8-c7Y-2" target="aKd_vlyp3bP-aZN8-c7Y-20" edge="1">
          <mxGeometry relative="1" as="geometry" />
        </mxCell>
        <mxCell id="aKd_vlyp3bP-aZN8-c7Y-2" value="Manager" style="shape=umlActor;verticalLabelPosition=bottom;verticalAlign=top;html=1;outlineConnect=0;" parent="1" vertex="1">
          <mxGeometry x="1320" y="110" width="30" height="60" as="geometry" />
        </mxCell>
        <mxCell id="aKd_vlyp3bP-aZN8-c7Y-19" style="rounded=0;orthogonalLoop=1;jettySize=auto;html=1;exitX=1;exitY=0.3333333333333333;exitDx=0;exitDy=0;exitPerimeter=0;endArrow=none;endFill=0;entryX=0;entryY=0.5;entryDx=0;entryDy=0;" parent="1" source="aKd_vlyp3bP-aZN8-c7Y-3" target="aKd_vlyp3bP-aZN8-c7Y-7" edge="1">
          <mxGeometry relative="1" as="geometry" />
        </mxCell>
        <mxCell id="aKd_vlyp3bP-aZN8-c7Y-21" style="rounded=0;orthogonalLoop=1;jettySize=auto;html=1;exitX=1;exitY=0.3333333333333333;exitDx=0;exitDy=0;exitPerimeter=0;entryX=0;entryY=0.5;entryDx=0;entryDy=0;endArrow=none;endFill=0;" parent="1" source="aKd_vlyp3bP-aZN8-c7Y-3" target="aKd_vlyp3bP-aZN8-c7Y-6" edge="1">
          <mxGeometry relative="1" as="geometry" />
        </mxCell>
        <mxCell id="aKd_vlyp3bP-aZN8-c7Y-46" style="rounded=0;orthogonalLoop=1;jettySize=auto;html=1;exitX=1;exitY=0.3333333333333333;exitDx=0;exitDy=0;exitPerimeter=0;entryX=0;entryY=0.5;entryDx=0;entryDy=0;endArrow=none;endFill=0;" parent="1" source="aKd_vlyp3bP-aZN8-c7Y-3" target="aKd_vlyp3bP-aZN8-c7Y-44" edge="1">
          <mxGeometry relative="1" as="geometry" />
        </mxCell>
        <mxCell id="aKd_vlyp3bP-aZN8-c7Y-3" value="Driver" style="shape=umlActor;verticalLabelPosition=bottom;verticalAlign=top;html=1;outlineConnect=0;" parent="1" vertex="1">
          <mxGeometry x="110" y="290" width="30" height="60" as="geometry" />
        </mxCell>
        <mxCell id="aKd_vlyp3bP-aZN8-c7Y-13" style="rounded=0;orthogonalLoop=1;jettySize=auto;html=1;exitX=1;exitY=0.3333333333333333;exitDx=0;exitDy=0;exitPerimeter=0;entryX=0;entryY=0.5;entryDx=0;entryDy=0;endArrow=none;endFill=0;" parent="1" source="aKd_vlyp3bP-aZN8-c7Y-9" target="aKd_vlyp3bP-aZN8-c7Y-8" edge="1">
          <mxGeometry relative="1" as="geometry" />
        </mxCell>
        <mxCell id="aKd_vlyp3bP-aZN8-c7Y-45" style="rounded=0;orthogonalLoop=1;jettySize=auto;html=1;exitX=1;exitY=0.3333333333333333;exitDx=0;exitDy=0;exitPerimeter=0;entryX=0;entryY=0.5;entryDx=0;entryDy=0;endArrow=none;endFill=0;" parent="1" source="aKd_vlyp3bP-aZN8-c7Y-4" target="aKd_vlyp3bP-aZN8-c7Y-44" edge="1">
          <mxGeometry relative="1" as="geometry" />
        </mxCell>
        <mxCell id="aKd_vlyp3bP-aZN8-c7Y-48" style="rounded=0;orthogonalLoop=1;jettySize=auto;html=1;exitX=1;exitY=0.3333333333333333;exitDx=0;exitDy=0;exitPerimeter=0;entryX=0;entryY=0.5;entryDx=0;entryDy=0;endArrow=none;endFill=0;" parent="1" source="aKd_vlyp3bP-aZN8-c7Y-4" target="aKd_vlyp3bP-aZN8-c7Y-7" edge="1">
          <mxGeometry relative="1" as="geometry" />
        </mxCell>
        <mxCell id="aKd_vlyp3bP-aZN8-c7Y-4" value="Customer" style="shape=umlActor;verticalLabelPosition=bottom;verticalAlign=top;html=1;outlineConnect=0;" parent="1" vertex="1">
          <mxGeometry x="140" y="100" width="30" height="60" as="geometry" />
        </mxCell>
        <mxCell id="aKd_vlyp3bP-aZN8-c7Y-5" value="Manage Driver" style="ellipse;whiteSpace=wrap;html=1;" parent="1" vertex="1">
          <mxGeometry x="910" y="440" width="120" height="80" as="geometry" />
        </mxCell>
        <mxCell id="aKd_vlyp3bP-aZN8-c7Y-6" value="Manage Ride Request" style="ellipse;whiteSpace=wrap;html=1;" parent="1" vertex="1">
          <mxGeometry x="340" y="400" width="120" height="80" as="geometry" />
        </mxCell>
        <mxCell id="aKd_vlyp3bP-aZN8-c7Y-7" value="Book Ride" style="ellipse;whiteSpace=wrap;html=1;" parent="1" vertex="1">
          <mxGeometry x="340" y="50" width="120" height="80" as="geometry" />
        </mxCell>
        <mxCell id="aKd_vlyp3bP-aZN8-c7Y-8" value="Register Account" style="ellipse;whiteSpace=wrap;html=1;" parent="1" vertex="1">
          <mxGeometry x="340" y="-80" width="120" height="80" as="geometry" />
        </mxCell>
        <mxCell id="aKd_vlyp3bP-aZN8-c7Y-12" style="rounded=0;orthogonalLoop=1;jettySize=auto;html=1;exitX=1;exitY=1;exitDx=0;exitDy=0;exitPerimeter=0;entryX=0.5;entryY=0;entryDx=0;entryDy=0;entryPerimeter=0;" parent="1" source="aKd_vlyp3bP-aZN8-c7Y-9" target="aKd_vlyp3bP-aZN8-c7Y-4" edge="1">
          <mxGeometry relative="1" as="geometry" />
        </mxCell>
        <mxCell id="aKd_vlyp3bP-aZN8-c7Y-9" value="New Customer" style="shape=umlActor;verticalLabelPosition=bottom;verticalAlign=top;html=1;outlineConnect=0;" parent="1" vertex="1">
          <mxGeometry x="140" y="-90" width="30" height="60" as="geometry" />
        </mxCell>
        <mxCell id="aKd_vlyp3bP-aZN8-c7Y-14" style="rounded=0;orthogonalLoop=1;jettySize=auto;html=1;exitX=0;exitY=0;exitDx=0;exitDy=0;dashed=1;entryX=1;entryY=1;entryDx=0;entryDy=0;" parent="1" source="aKd_vlyp3bP-aZN8-c7Y-10" target="aKd_vlyp3bP-aZN8-c7Y-7" edge="1">
          <mxGeometry relative="1" as="geometry" />
        </mxCell>
        <mxCell id="aKd_vlyp3bP-aZN8-c7Y-57" style="rounded=0;orthogonalLoop=1;jettySize=auto;html=1;exitX=0;exitY=1;exitDx=0;exitDy=0;entryX=1;entryY=0;entryDx=0;entryDy=0;dashed=1;" parent="1" source="aKd_vlyp3bP-aZN8-c7Y-10" target="aKd_vlyp3bP-aZN8-c7Y-6" edge="1">
          <mxGeometry relative="1" as="geometry" />
        </mxCell>
        <mxCell id="aKd_vlyp3bP-aZN8-c7Y-10" value="Process Payment" style="ellipse;whiteSpace=wrap;html=1;" parent="1" vertex="1">
          <mxGeometry x="590" y="300" width="120" height="80" as="geometry" />
        </mxCell>
        <mxCell id="aKd_vlyp3bP-aZN8-c7Y-11" value="Manage Customer" style="ellipse;whiteSpace=wrap;html=1;" parent="1" vertex="1">
          <mxGeometry x="1000" y="240" width="120" height="80" as="geometry" />
        </mxCell>
        <mxCell id="aKd_vlyp3bP-aZN8-c7Y-15" value="&amp;lt;&amp;lt;include&amp;gt;&amp;gt;" style="text;html=1;align=center;verticalAlign=middle;whiteSpace=wrap;rounded=0;" parent="1" vertex="1">
          <mxGeometry x="530" y="425" width="60" height="30" as="geometry" />
        </mxCell>
        <mxCell id="aKd_vlyp3bP-aZN8-c7Y-20" value="Manage Ride" style="ellipse;whiteSpace=wrap;html=1;" parent="1" vertex="1">
          <mxGeometry x="990" y="110" width="120" height="80" as="geometry" />
        </mxCell>
        <mxCell id="aKd_vlyp3bP-aZN8-c7Y-27" style="rounded=0;orthogonalLoop=1;jettySize=auto;html=1;exitX=0;exitY=0.5;exitDx=0;exitDy=0;entryX=1;entryY=1;entryDx=0;entryDy=0;dashed=1;" parent="1" source="aKd_vlyp3bP-aZN8-c7Y-25" target="aKd_vlyp3bP-aZN8-c7Y-6" edge="1">
          <mxGeometry relative="1" as="geometry" />
        </mxCell>
        <mxCell id="aKd_vlyp3bP-aZN8-c7Y-25" value="Cancel Ride" style="ellipse;whiteSpace=wrap;html=1;" parent="1" vertex="1">
          <mxGeometry x="530" y="510" width="120" height="80" as="geometry" />
        </mxCell>
        <mxCell id="aKd_vlyp3bP-aZN8-c7Y-28" style="rounded=0;orthogonalLoop=1;jettySize=auto;html=1;exitX=0;exitY=0;exitDx=0;exitDy=0;entryX=1;entryY=0.5;entryDx=0;entryDy=0;dashed=1;" parent="1" source="aKd_vlyp3bP-aZN8-c7Y-26" target="aKd_vlyp3bP-aZN8-c7Y-6" edge="1">
          <mxGeometry relative="1" as="geometry" />
        </mxCell>
        <mxCell id="aKd_vlyp3bP-aZN8-c7Y-26" value="Accept Ride" style="ellipse;whiteSpace=wrap;html=1;" parent="1" vertex="1">
          <mxGeometry x="620" y="440" width="120" height="80" as="geometry" />
        </mxCell>
        <mxCell id="aKd_vlyp3bP-aZN8-c7Y-29" value="&amp;lt;&amp;lt;extends&amp;gt;&amp;gt;" style="text;html=1;align=center;verticalAlign=middle;whiteSpace=wrap;rounded=0;" parent="1" vertex="1">
          <mxGeometry x="480" y="475" width="60" height="30" as="geometry" />
        </mxCell>
        <mxCell id="aKd_vlyp3bP-aZN8-c7Y-30" value="&amp;lt;&amp;lt;include&amp;gt;&amp;gt;" style="text;html=1;align=center;verticalAlign=middle;whiteSpace=wrap;rounded=0;" parent="1" vertex="1">
          <mxGeometry x="470" y="210" width="60" height="30" as="geometry" />
        </mxCell>
        <mxCell id="aKd_vlyp3bP-aZN8-c7Y-32" style="rounded=0;orthogonalLoop=1;jettySize=auto;html=1;exitX=0;exitY=0.5;exitDx=0;exitDy=0;dashed=1;" parent="1" source="aKd_vlyp3bP-aZN8-c7Y-31" target="aKd_vlyp3bP-aZN8-c7Y-7" edge="1">
          <mxGeometry relative="1" as="geometry" />
        </mxCell>
        <mxCell id="aKd_vlyp3bP-aZN8-c7Y-31" value="Save Receipt" style="ellipse;whiteSpace=wrap;html=1;" parent="1" vertex="1">
          <mxGeometry x="680" y="80" width="120" height="80" as="geometry" />
        </mxCell>
        <mxCell id="aKd_vlyp3bP-aZN8-c7Y-33" value="&amp;lt;&amp;lt;include&amp;gt;&amp;gt;" style="text;html=1;align=center;verticalAlign=middle;whiteSpace=wrap;rounded=0;" parent="1" vertex="1">
          <mxGeometry x="480" y="365" width="60" height="30" as="geometry" />
        </mxCell>
        <mxCell id="aKd_vlyp3bP-aZN8-c7Y-36" style="rounded=0;orthogonalLoop=1;jettySize=auto;html=1;exitX=0;exitY=0.5;exitDx=0;exitDy=0;entryX=1;entryY=0.5;entryDx=0;entryDy=0;dashed=1;" parent="1" source="aKd_vlyp3bP-aZN8-c7Y-35" target="aKd_vlyp3bP-aZN8-c7Y-7" edge="1">
          <mxGeometry relative="1" as="geometry" />
        </mxCell>
        <mxCell id="aKd_vlyp3bP-aZN8-c7Y-39" style="rounded=0;orthogonalLoop=1;jettySize=auto;html=1;exitX=1;exitY=0.5;exitDx=0;exitDy=0;entryX=0;entryY=0;entryDx=0;entryDy=0;dashed=1;" parent="1" source="aKd_vlyp3bP-aZN8-c7Y-35" target="aKd_vlyp3bP-aZN8-c7Y-20" edge="1">
          <mxGeometry relative="1" as="geometry" />
        </mxCell>
        <mxCell id="aKd_vlyp3bP-aZN8-c7Y-35" value="View Ride History" style="ellipse;whiteSpace=wrap;html=1;" parent="1" vertex="1">
          <mxGeometry x="750" width="120" height="80" as="geometry" />
        </mxCell>
        <mxCell id="aKd_vlyp3bP-aZN8-c7Y-38" value="&amp;lt;&amp;lt;extends&amp;gt;&amp;gt;" style="text;html=1;align=center;verticalAlign=middle;whiteSpace=wrap;rounded=0;" parent="1" vertex="1">
          <mxGeometry x="580" y="85" width="60" height="30" as="geometry" />
        </mxCell>
        <mxCell id="aKd_vlyp3bP-aZN8-c7Y-40" value="&amp;lt;&amp;lt;extends&amp;gt;&amp;gt;" style="text;html=1;align=center;verticalAlign=middle;whiteSpace=wrap;rounded=0;" parent="1" vertex="1">
          <mxGeometry x="530" y="-30" width="60" height="30" as="geometry" />
        </mxCell>
        <mxCell id="aKd_vlyp3bP-aZN8-c7Y-42" style="rounded=0;orthogonalLoop=1;jettySize=auto;html=1;exitX=0;exitY=0.5;exitDx=0;exitDy=0;entryX=1;entryY=0;entryDx=0;entryDy=0;dashed=1;" parent="1" source="aKd_vlyp3bP-aZN8-c7Y-41" target="aKd_vlyp3bP-aZN8-c7Y-7" edge="1">
          <mxGeometry relative="1" as="geometry" />
        </mxCell>
        <mxCell id="aKd_vlyp3bP-aZN8-c7Y-41" value="Track Driver" style="ellipse;whiteSpace=wrap;html=1;" parent="1" vertex="1">
          <mxGeometry x="650" y="-80" width="120" height="80" as="geometry" />
        </mxCell>
        <mxCell id="aKd_vlyp3bP-aZN8-c7Y-43" value="&amp;lt;&amp;lt;extends&amp;gt;&amp;gt;" style="text;html=1;align=center;verticalAlign=middle;whiteSpace=wrap;rounded=0;" parent="1" vertex="1">
          <mxGeometry x="590" y="30" width="60" height="30" as="geometry" />
        </mxCell>
        <mxCell id="aKd_vlyp3bP-aZN8-c7Y-44" value="Login Account" style="ellipse;whiteSpace=wrap;html=1;" parent="1" vertex="1">
          <mxGeometry x="310" y="230" width="120" height="80" as="geometry" />
        </mxCell>
        <mxCell id="aKd_vlyp3bP-aZN8-c7Y-50" style="rounded=0;orthogonalLoop=1;jettySize=auto;html=1;exitX=1;exitY=0;exitDx=0;exitDy=0;entryX=0;entryY=0.5;entryDx=0;entryDy=0;dashed=1;" parent="1" source="aKd_vlyp3bP-aZN8-c7Y-49" target="aKd_vlyp3bP-aZN8-c7Y-20" edge="1">
          <mxGeometry relative="1" as="geometry" />
        </mxCell>
        <mxCell id="aKd_vlyp3bP-aZN8-c7Y-49" value="Print Report" style="ellipse;whiteSpace=wrap;html=1;" parent="1" vertex="1">
          <mxGeometry x="790" y="240" width="120" height="80" as="geometry" />
        </mxCell>
        <mxCell id="aKd_vlyp3bP-aZN8-c7Y-51" value="&amp;lt;&amp;lt;extends&amp;gt;&amp;gt;" style="text;html=1;align=center;verticalAlign=middle;whiteSpace=wrap;rounded=0;" parent="1" vertex="1">
          <mxGeometry x="920" y="290" width="60" height="30" as="geometry" />
        </mxCell>
        <mxCell id="aKd_vlyp3bP-aZN8-c7Y-52" style="rounded=0;orthogonalLoop=1;jettySize=auto;html=1;exitX=0.5;exitY=1;exitDx=0;exitDy=0;entryX=0.5;entryY=0;entryDx=0;entryDy=0;dashed=1;" parent="1" source="aKd_vlyp3bP-aZN8-c7Y-49" target="aKd_vlyp3bP-aZN8-c7Y-5" edge="1">
          <mxGeometry relative="1" as="geometry">
            <mxPoint x="630" y="-30" as="sourcePoint" />
            <mxPoint x="450" y="-30" as="targetPoint" />
          </mxGeometry>
        </mxCell>
        <mxCell id="aKd_vlyp3bP-aZN8-c7Y-53" style="rounded=0;orthogonalLoop=1;jettySize=auto;html=1;exitX=1;exitY=0.5;exitDx=0;exitDy=0;entryX=0;entryY=0.5;entryDx=0;entryDy=0;dashed=1;" parent="1" source="aKd_vlyp3bP-aZN8-c7Y-49" target="aKd_vlyp3bP-aZN8-c7Y-11" edge="1">
          <mxGeometry relative="1" as="geometry">
            <mxPoint x="640" y="-20" as="sourcePoint" />
            <mxPoint x="460" y="-20" as="targetPoint" />
          </mxGeometry>
        </mxCell>
        <mxCell id="aKd_vlyp3bP-aZN8-c7Y-54" value="&amp;lt;&amp;lt;extends&amp;gt;&amp;gt;" style="text;html=1;align=center;verticalAlign=middle;whiteSpace=wrap;rounded=0;" parent="1" vertex="1">
          <mxGeometry x="880" y="180" width="60" height="30" as="geometry" />
        </mxCell>
        <mxCell id="aKd_vlyp3bP-aZN8-c7Y-55" value="&amp;lt;&amp;lt;extends&amp;gt;&amp;gt;" style="text;html=1;align=center;verticalAlign=middle;whiteSpace=wrap;rounded=0;" parent="1" vertex="1">
          <mxGeometry x="920" y="365" width="60" height="30" as="geometry" />
        </mxCell>
        <mxCell id="aKd_vlyp3bP-aZN8-c7Y-59" value="&lt;b&gt;Smart Ride OSRP System&lt;/b&gt;" style="text;html=1;align=center;verticalAlign=middle;whiteSpace=wrap;rounded=0;" parent="1" vertex="1">
          <mxGeometry x="630" y="-120" width="190" height="30" as="geometry" />
        </mxCell>
        <mxCell id="aKd_vlyp3bP-aZN8-c7Y-61" style="rounded=0;orthogonalLoop=1;jettySize=auto;html=1;exitX=0;exitY=0;exitDx=0;exitDy=0;entryX=1;entryY=1;entryDx=0;entryDy=0;dashed=1;" parent="1" source="aKd_vlyp3bP-aZN8-c7Y-60" target="aKd_vlyp3bP-aZN8-c7Y-7" edge="1">
          <mxGeometry relative="1" as="geometry" />
        </mxCell>
        <mxCell id="aKd_vlyp3bP-aZN8-c7Y-60" value="Cancel Ride" style="ellipse;whiteSpace=wrap;html=1;" parent="1" vertex="1">
          <mxGeometry x="630" y="185" width="120" height="80" as="geometry" />
        </mxCell>
        <mxCell id="aKd_vlyp3bP-aZN8-c7Y-62" value="&amp;lt;&amp;lt;extends&amp;gt;&amp;gt;" style="text;html=1;align=center;verticalAlign=middle;whiteSpace=wrap;rounded=0;" parent="1" vertex="1">
          <mxGeometry x="550" y="135" width="60" height="30" as="geometry" />
        </mxCell>
      </root>
    </mxGraphModel>
  </diagram>
  <diagram id="RwyBlBL7F1ebZixFk1aH" name="Register Account System">
    <mxGraphModel dx="1720" dy="1012" grid="1" gridSize="10" guides="1" tooltips="1" connect="1" arrows="1" fold="1" page="1" pageScale="1" pageWidth="850" pageHeight="1100" math="0" shadow="0">
      <root>
        <mxCell id="0" />
        <mxCell id="1" parent="0" />
        <mxCell id="BCms4JT8QMgts0rr5iui-1" value="" style="rounded=0;whiteSpace=wrap;html=1;fillColor=none;" vertex="1" parent="1">
          <mxGeometry x="305" y="200" width="365" height="310" as="geometry" />
        </mxCell>
        <mxCell id="BCms4JT8QMgts0rr5iui-21" style="rounded=0;orthogonalLoop=1;jettySize=auto;html=1;exitX=1;exitY=0.3333333333333333;exitDx=0;exitDy=0;exitPerimeter=0;endArrow=none;endFill=0;" edge="1" parent="1" source="BCms4JT8QMgts0rr5iui-2" target="BCms4JT8QMgts0rr5iui-3">
          <mxGeometry relative="1" as="geometry" />
        </mxCell>
        <mxCell id="BCms4JT8QMgts0rr5iui-2" value="Customer&amp;nbsp;" style="shape=umlActor;verticalLabelPosition=bottom;verticalAlign=top;html=1;outlineConnect=0;" vertex="1" parent="1">
          <mxGeometry x="200" y="240" width="30" height="60" as="geometry" />
        </mxCell>
        <mxCell id="BCms4JT8QMgts0rr5iui-3" value="Register Account&amp;nbsp;" style="ellipse;whiteSpace=wrap;html=1;" vertex="1" parent="1">
          <mxGeometry x="340" y="230" width="120" height="80" as="geometry" />
        </mxCell>
        <mxCell id="BCms4JT8QMgts0rr5iui-28" style="rounded=0;orthogonalLoop=1;jettySize=auto;html=1;exitX=0.5;exitY=0;exitDx=0;exitDy=0;entryX=0.5;entryY=1;entryDx=0;entryDy=0;dashed=1;" edge="1" parent="1" source="BCms4JT8QMgts0rr5iui-4" target="BCms4JT8QMgts0rr5iui-3">
          <mxGeometry relative="1" as="geometry" />
        </mxCell>
        <mxCell id="BCms4JT8QMgts0rr5iui-4" value="Account Validation" style="ellipse;whiteSpace=wrap;html=1;" vertex="1" parent="1">
          <mxGeometry x="340" y="380" width="120" height="80" as="geometry" />
        </mxCell>
        <mxCell id="BCms4JT8QMgts0rr5iui-5" value="&lt;b&gt;Register Account Subsystem&lt;/b&gt;" style="text;html=1;align=center;verticalAlign=middle;whiteSpace=wrap;rounded=0;" vertex="1" parent="1">
          <mxGeometry x="397.5" y="200" width="180" height="30" as="geometry" />
        </mxCell>
        <mxCell id="BCms4JT8QMgts0rr5iui-29" value="&amp;lt;&amp;lt;include&amp;gt;&amp;gt;" style="text;html=1;align=center;verticalAlign=middle;whiteSpace=wrap;rounded=0;" vertex="1" parent="1">
          <mxGeometry x="410" y="340" width="60" height="30" as="geometry" />
        </mxCell>
        <mxCell id="BCms4JT8QMgts0rr5iui-34" style="rounded=0;orthogonalLoop=1;jettySize=auto;html=1;exitX=0;exitY=0.5;exitDx=0;exitDy=0;dashed=1;" edge="1" parent="1" source="BCms4JT8QMgts0rr5iui-30" target="BCms4JT8QMgts0rr5iui-3">
          <mxGeometry relative="1" as="geometry" />
        </mxCell>
        <mxCell id="BCms4JT8QMgts0rr5iui-30" value="Login Account" style="ellipse;whiteSpace=wrap;html=1;" vertex="1" parent="1">
          <mxGeometry x="540" y="230" width="120" height="80" as="geometry" />
        </mxCell>
        <mxCell id="BCms4JT8QMgts0rr5iui-32" style="rounded=0;orthogonalLoop=1;jettySize=auto;html=1;exitX=0;exitY=0;exitDx=0;exitDy=0;entryX=1;entryY=1;entryDx=0;entryDy=0;dashed=1;" edge="1" parent="1" source="BCms4JT8QMgts0rr5iui-31" target="BCms4JT8QMgts0rr5iui-3">
          <mxGeometry relative="1" as="geometry" />
        </mxCell>
        <mxCell id="BCms4JT8QMgts0rr5iui-31" value="Send Email Verification" style="ellipse;whiteSpace=wrap;html=1;" vertex="1" parent="1">
          <mxGeometry x="520" y="390" width="120" height="80" as="geometry" />
        </mxCell>
        <mxCell id="BCms4JT8QMgts0rr5iui-33" value="&amp;lt;&amp;lt;include&amp;gt;&amp;gt;" style="text;html=1;align=center;verticalAlign=middle;whiteSpace=wrap;rounded=0;" vertex="1" parent="1">
          <mxGeometry x="500" y="330" width="60" height="30" as="geometry" />
        </mxCell>
        <mxCell id="BCms4JT8QMgts0rr5iui-35" value="&amp;lt;&amp;lt;extends&amp;gt;&amp;gt;" style="text;html=1;align=center;verticalAlign=middle;whiteSpace=wrap;rounded=0;" vertex="1" parent="1">
          <mxGeometry x="470" y="240" width="60" height="30" as="geometry" />
        </mxCell>
      </root>
    </mxGraphModel>
  </diagram>
  <diagram id="2GQ77AXyKNFNpHI5lr9F" name="Book Ride Subsystem">
    <mxGraphModel dx="1315" dy="774" grid="1" gridSize="10" guides="1" tooltips="1" connect="1" arrows="1" fold="1" page="1" pageScale="1" pageWidth="850" pageHeight="1100" math="0" shadow="0">
      <root>
        <mxCell id="0" />
        <mxCell id="1" parent="0" />
        <mxCell id="QXNQ9oikLp2T8g3h-tej-1" value="" style="rounded=0;whiteSpace=wrap;html=1;fillColor=none;" vertex="1" parent="1">
          <mxGeometry x="305" y="660" width="365" height="310" as="geometry" />
        </mxCell>
        <mxCell id="QXNQ9oikLp2T8g3h-tej-2" style="rounded=0;orthogonalLoop=1;jettySize=auto;html=1;exitX=1;exitY=0.3333333333333333;exitDx=0;exitDy=0;exitPerimeter=0;endArrow=none;endFill=0;" edge="1" parent="1" source="QXNQ9oikLp2T8g3h-tej-3" target="QXNQ9oikLp2T8g3h-tej-4">
          <mxGeometry relative="1" as="geometry" />
        </mxCell>
        <mxCell id="QXNQ9oikLp2T8g3h-tej-3" value="Customer&amp;nbsp;" style="shape=umlActor;verticalLabelPosition=bottom;verticalAlign=top;html=1;outlineConnect=0;" vertex="1" parent="1">
          <mxGeometry x="200" y="700" width="30" height="60" as="geometry" />
        </mxCell>
        <mxCell id="QXNQ9oikLp2T8g3h-tej-4" value="Book Ride" style="ellipse;whiteSpace=wrap;html=1;" vertex="1" parent="1">
          <mxGeometry x="340" y="690" width="120" height="80" as="geometry" />
        </mxCell>
        <mxCell id="QXNQ9oikLp2T8g3h-tej-5" style="rounded=0;orthogonalLoop=1;jettySize=auto;html=1;exitX=0.5;exitY=0;exitDx=0;exitDy=0;entryX=0.5;entryY=1;entryDx=0;entryDy=0;dashed=1;" edge="1" parent="1" source="QXNQ9oikLp2T8g3h-tej-6" target="QXNQ9oikLp2T8g3h-tej-4">
          <mxGeometry relative="1" as="geometry" />
        </mxCell>
        <mxCell id="QXNQ9oikLp2T8g3h-tej-6" value="Cancel Booking" style="ellipse;whiteSpace=wrap;html=1;" vertex="1" parent="1">
          <mxGeometry x="340" y="840" width="120" height="80" as="geometry" />
        </mxCell>
        <mxCell id="QXNQ9oikLp2T8g3h-tej-7" value="&lt;b&gt;Book Ride Subsystem&lt;/b&gt;" style="text;html=1;align=center;verticalAlign=middle;whiteSpace=wrap;rounded=0;" vertex="1" parent="1">
          <mxGeometry x="397.5" y="660" width="180" height="30" as="geometry" />
        </mxCell>
        <mxCell id="QXNQ9oikLp2T8g3h-tej-8" style="rounded=0;orthogonalLoop=1;jettySize=auto;html=1;exitX=0;exitY=0.5;exitDx=0;exitDy=0;entryX=1;entryY=0.5;entryDx=0;entryDy=0;dashed=1;" edge="1" parent="1" source="QXNQ9oikLp2T8g3h-tej-9" target="QXNQ9oikLp2T8g3h-tej-4">
          <mxGeometry relative="1" as="geometry" />
        </mxCell>
        <mxCell id="QXNQ9oikLp2T8g3h-tej-9" value="Find Available Driver" style="ellipse;whiteSpace=wrap;html=1;" vertex="1" parent="1">
          <mxGeometry x="540" y="690" width="120" height="80" as="geometry" />
        </mxCell>
        <mxCell id="QXNQ9oikLp2T8g3h-tej-10" value="&amp;lt;&amp;lt;include&amp;gt;&amp;gt;" style="text;html=1;align=center;verticalAlign=middle;whiteSpace=wrap;rounded=0;" vertex="1" parent="1">
          <mxGeometry x="470" y="700" width="60" height="30" as="geometry" />
        </mxCell>
        <mxCell id="QXNQ9oikLp2T8g3h-tej-11" style="rounded=0;orthogonalLoop=1;jettySize=auto;html=1;exitX=0;exitY=0;exitDx=0;exitDy=0;entryX=1;entryY=1;entryDx=0;entryDy=0;dashed=1;" edge="1" parent="1" source="QXNQ9oikLp2T8g3h-tej-12" target="QXNQ9oikLp2T8g3h-tej-4">
          <mxGeometry relative="1" as="geometry" />
        </mxCell>
        <mxCell id="QXNQ9oikLp2T8g3h-tej-12" value="Track Booking Status" style="ellipse;whiteSpace=wrap;html=1;" vertex="1" parent="1">
          <mxGeometry x="530" y="840" width="120" height="80" as="geometry" />
        </mxCell>
        <mxCell id="QXNQ9oikLp2T8g3h-tej-13" value="&amp;lt;&amp;lt;extends&amp;gt;&amp;gt;" style="text;html=1;align=center;verticalAlign=middle;whiteSpace=wrap;rounded=0;" vertex="1" parent="1">
          <mxGeometry x="490" y="780" width="60" height="30" as="geometry" />
        </mxCell>
        <mxCell id="QXNQ9oikLp2T8g3h-tej-14" value="&amp;lt;&amp;lt;extends&amp;gt;&amp;gt;" style="text;html=1;align=center;verticalAlign=middle;whiteSpace=wrap;rounded=0;" vertex="1" parent="1">
          <mxGeometry x="410" y="800" width="60" height="30" as="geometry" />
        </mxCell>
      </root>
    </mxGraphModel>
  </diagram>
  <diagram id="2tz3rorngc0J4ETggnWX" name="Payment Subsystem">
    <mxGraphModel dx="1118" dy="658" grid="1" gridSize="10" guides="1" tooltips="1" connect="1" arrows="1" fold="1" page="1" pageScale="1" pageWidth="850" pageHeight="1100" math="0" shadow="0">
      <root>
        <mxCell id="0" />
        <mxCell id="1" parent="0" />
        <mxCell id="ISIR3PfDSytz6qCKMSTV-1" value="" style="rounded=0;whiteSpace=wrap;html=1;fillColor=none;" vertex="1" parent="1">
          <mxGeometry x="865" y="200" width="365" height="310" as="geometry" />
        </mxCell>
        <mxCell id="ISIR3PfDSytz6qCKMSTV-2" style="rounded=0;orthogonalLoop=1;jettySize=auto;html=1;exitX=1;exitY=0.3333333333333333;exitDx=0;exitDy=0;exitPerimeter=0;endArrow=none;endFill=0;" edge="1" parent="1" source="ISIR3PfDSytz6qCKMSTV-3" target="ISIR3PfDSytz6qCKMSTV-4">
          <mxGeometry relative="1" as="geometry" />
        </mxCell>
        <mxCell id="ISIR3PfDSytz6qCKMSTV-3" value="Customer&amp;nbsp;" style="shape=umlActor;verticalLabelPosition=bottom;verticalAlign=top;html=1;outlineConnect=0;" vertex="1" parent="1">
          <mxGeometry x="760" y="240" width="30" height="60" as="geometry" />
        </mxCell>
        <mxCell id="ISIR3PfDSytz6qCKMSTV-4" value="Make Payment" style="ellipse;whiteSpace=wrap;html=1;" vertex="1" parent="1">
          <mxGeometry x="900" y="230" width="120" height="80" as="geometry" />
        </mxCell>
        <mxCell id="ISIR3PfDSytz6qCKMSTV-5" style="rounded=0;orthogonalLoop=1;jettySize=auto;html=1;exitX=0.5;exitY=0;exitDx=0;exitDy=0;entryX=0.5;entryY=1;entryDx=0;entryDy=0;dashed=1;" edge="1" parent="1" source="ISIR3PfDSytz6qCKMSTV-6" target="ISIR3PfDSytz6qCKMSTV-4">
          <mxGeometry relative="1" as="geometry" />
        </mxCell>
        <mxCell id="ISIR3PfDSytz6qCKMSTV-6" value="Choose Payment Method" style="ellipse;whiteSpace=wrap;html=1;" vertex="1" parent="1">
          <mxGeometry x="900" y="380" width="120" height="80" as="geometry" />
        </mxCell>
        <mxCell id="ISIR3PfDSytz6qCKMSTV-7" value="&lt;b&gt;PaymentSubsystem&lt;/b&gt;" style="text;html=1;align=center;verticalAlign=middle;whiteSpace=wrap;rounded=0;" vertex="1" parent="1">
          <mxGeometry x="957.5" y="200" width="180" height="30" as="geometry" />
        </mxCell>
        <mxCell id="ISIR3PfDSytz6qCKMSTV-8" style="rounded=0;orthogonalLoop=1;jettySize=auto;html=1;exitX=0;exitY=0;exitDx=0;exitDy=0;entryX=1;entryY=1;entryDx=0;entryDy=0;dashed=1;" edge="1" parent="1" source="ISIR3PfDSytz6qCKMSTV-9" target="ISIR3PfDSytz6qCKMSTV-4">
          <mxGeometry relative="1" as="geometry" />
        </mxCell>
        <mxCell id="ISIR3PfDSytz6qCKMSTV-9" value="Generate Receipt&amp;nbsp;" style="ellipse;whiteSpace=wrap;html=1;" vertex="1" parent="1">
          <mxGeometry x="1100" y="380" width="120" height="80" as="geometry" />
        </mxCell>
        <mxCell id="ISIR3PfDSytz6qCKMSTV-10" style="rounded=0;orthogonalLoop=1;jettySize=auto;html=1;exitX=0;exitY=0.5;exitDx=0;exitDy=0;dashed=1;" edge="1" parent="1" source="ISIR3PfDSytz6qCKMSTV-11" target="ISIR3PfDSytz6qCKMSTV-4">
          <mxGeometry relative="1" as="geometry" />
        </mxCell>
        <mxCell id="ISIR3PfDSytz6qCKMSTV-11" value="Validate Payment" style="ellipse;whiteSpace=wrap;html=1;" vertex="1" parent="1">
          <mxGeometry x="1100" y="230" width="120" height="80" as="geometry" />
        </mxCell>
        <mxCell id="ISIR3PfDSytz6qCKMSTV-12" value="&amp;lt;&amp;lt;include&amp;gt;&amp;gt;" style="text;html=1;align=center;verticalAlign=middle;whiteSpace=wrap;rounded=0;" vertex="1" parent="1">
          <mxGeometry x="1030" y="240" width="60" height="30" as="geometry" />
        </mxCell>
        <mxCell id="ISIR3PfDSytz6qCKMSTV-13" value="&amp;lt;&amp;lt;extends&amp;gt;&amp;gt;" style="text;html=1;align=center;verticalAlign=middle;whiteSpace=wrap;rounded=0;" vertex="1" parent="1">
          <mxGeometry x="1060" y="320" width="60" height="30" as="geometry" />
        </mxCell>
        <mxCell id="ISIR3PfDSytz6qCKMSTV-14" value="&amp;lt;&amp;lt;include&amp;gt;&amp;gt;" style="text;html=1;align=center;verticalAlign=middle;whiteSpace=wrap;rounded=0;" vertex="1" parent="1">
          <mxGeometry x="970" y="330" width="60" height="30" as="geometry" />
        </mxCell>
      </root>
    </mxGraphModel>
  </diagram>
  <diagram id="-Ot1cAu_JXAN6-Zy53O7" name="Track Driver Subsystem">
    <mxGraphModel dx="1118" dy="658" grid="1" gridSize="10" guides="1" tooltips="1" connect="1" arrows="1" fold="1" page="1" pageScale="1" pageWidth="850" pageHeight="1100" math="0" shadow="0">
      <root>
        <mxCell id="0" />
        <mxCell id="1" parent="0" />
        <mxCell id="UDHUgYAmyg35vs20G6PC-1" value="&amp;nbsp; &amp;nbsp;&amp;nbsp;" style="rounded=0;whiteSpace=wrap;html=1;fillColor=none;" vertex="1" parent="1">
          <mxGeometry x="865" y="575" width="365" height="310" as="geometry" />
        </mxCell>
        <mxCell id="UDHUgYAmyg35vs20G6PC-2" style="rounded=0;orthogonalLoop=1;jettySize=auto;html=1;exitX=1;exitY=0.3333333333333333;exitDx=0;exitDy=0;exitPerimeter=0;entryX=0;entryY=0.5;entryDx=0;entryDy=0;endArrow=none;endFill=0;" edge="1" parent="1" source="UDHUgYAmyg35vs20G6PC-3" target="UDHUgYAmyg35vs20G6PC-4">
          <mxGeometry relative="1" as="geometry" />
        </mxCell>
        <mxCell id="UDHUgYAmyg35vs20G6PC-3" value="Customer&amp;nbsp;" style="shape=umlActor;verticalLabelPosition=bottom;verticalAlign=top;html=1;outlineConnect=0;" vertex="1" parent="1">
          <mxGeometry x="760" y="615" width="30" height="60" as="geometry" />
        </mxCell>
        <mxCell id="UDHUgYAmyg35vs20G6PC-4" value="Track Driver&amp;nbsp;" style="ellipse;whiteSpace=wrap;html=1;" vertex="1" parent="1">
          <mxGeometry x="900" y="605" width="120" height="80" as="geometry" />
        </mxCell>
        <mxCell id="UDHUgYAmyg35vs20G6PC-5" style="rounded=0;orthogonalLoop=1;jettySize=auto;html=1;exitX=0.5;exitY=0;exitDx=0;exitDy=0;entryX=0.5;entryY=1;entryDx=0;entryDy=0;dashed=1;" edge="1" parent="1" source="UDHUgYAmyg35vs20G6PC-6" target="UDHUgYAmyg35vs20G6PC-4">
          <mxGeometry relative="1" as="geometry" />
        </mxCell>
        <mxCell id="UDHUgYAmyg35vs20G6PC-6" value="Fetch Driver Location" style="ellipse;whiteSpace=wrap;html=1;" vertex="1" parent="1">
          <mxGeometry x="900" y="755" width="120" height="80" as="geometry" />
        </mxCell>
        <mxCell id="UDHUgYAmyg35vs20G6PC-7" value="&lt;b&gt;Track Driver Subsystem&lt;/b&gt;" style="text;html=1;align=center;verticalAlign=middle;whiteSpace=wrap;rounded=0;" vertex="1" parent="1">
          <mxGeometry x="957.5" y="575" width="180" height="30" as="geometry" />
        </mxCell>
        <mxCell id="UDHUgYAmyg35vs20G6PC-8" style="rounded=0;orthogonalLoop=1;jettySize=auto;html=1;exitX=0;exitY=0;exitDx=0;exitDy=0;entryX=1;entryY=1;entryDx=0;entryDy=0;dashed=1;" edge="1" parent="1" source="UDHUgYAmyg35vs20G6PC-9" target="UDHUgYAmyg35vs20G6PC-4">
          <mxGeometry relative="1" as="geometry" />
        </mxCell>
        <mxCell id="UDHUgYAmyg35vs20G6PC-9" value="ETA Estimate" style="ellipse;whiteSpace=wrap;html=1;" vertex="1" parent="1">
          <mxGeometry x="1080" y="755" width="120" height="80" as="geometry" />
        </mxCell>
        <mxCell id="UDHUgYAmyg35vs20G6PC-10" value="&amp;lt;&amp;lt;include&amp;gt;&amp;gt;" style="text;html=1;align=center;verticalAlign=middle;whiteSpace=wrap;rounded=0;" vertex="1" parent="1">
          <mxGeometry x="897.5" y="715" width="60" height="30" as="geometry" />
        </mxCell>
        <mxCell id="UDHUgYAmyg35vs20G6PC-11" value="&amp;lt;&amp;lt;include&amp;gt;&amp;gt;" style="text;html=1;align=center;verticalAlign=middle;whiteSpace=wrap;rounded=0;" vertex="1" parent="1">
          <mxGeometry x="1000" y="715" width="60" height="30" as="geometry" />
        </mxCell>
        <mxCell id="UDHUgYAmyg35vs20G6PC-12" style="rounded=0;orthogonalLoop=1;jettySize=auto;html=1;exitX=0;exitY=0.5;exitDx=0;exitDy=0;entryX=1;entryY=0.5;entryDx=0;entryDy=0;dashed=1;" edge="1" parent="1" source="UDHUgYAmyg35vs20G6PC-13" target="UDHUgYAmyg35vs20G6PC-4">
          <mxGeometry relative="1" as="geometry" />
        </mxCell>
        <mxCell id="UDHUgYAmyg35vs20G6PC-13" value="Interact With Driver&amp;nbsp;&lt;br&gt;(Call Driver)" style="ellipse;whiteSpace=wrap;html=1;" vertex="1" parent="1">
          <mxGeometry x="1110" y="605" width="120" height="80" as="geometry" />
        </mxCell>
        <mxCell id="UDHUgYAmyg35vs20G6PC-14" value="&amp;lt;&amp;lt;extends&amp;gt;&amp;gt;" style="text;html=1;align=center;verticalAlign=middle;whiteSpace=wrap;rounded=0;" vertex="1" parent="1">
          <mxGeometry x="1040" y="615" width="60" height="30" as="geometry" />
        </mxCell>
      </root>
    </mxGraphModel>
  </diagram>
</mxfile>
